<?xml version="1.0" encoding="UTF-8" standalone="no"?>
<!DOCTYPE svg PUBLIC "-//W3C//DTD SVG 1.1//EN" "http://www.w3.org/Graphics/SVG/1.1/DTD/svg11.dtd">
<svg width="40px" height="69px" version="1.1" xmlns="http://www.w3.org/2000/svg" xmlns:xlink="http://www.w3.org/1999/xlink" xml:space="preserve" xmlns:serif="http://www.serif.com/" style="fill-rule:evenodd;clip-rule:evenodd;stroke-linecap:round;stroke-linejoin:round;stroke-miterlimit:1.5;">
    <g id="xnor">
        <path d="M20.134,16.004L20.134,1.315" style="fill:none;stroke:black;stroke-width:2px;"/>
        <path d="M11.936,67.373L11.936,39.521" style="fill:none;stroke:black;stroke-width:2px;"/>
        <path d="M28.332,67.373L28.332,39.521" style="fill:none;stroke:black;stroke-width:2px;"/>
        <path d="M1.815,51.776C2.69,23.202 20.134,16.004 20.134,16.004L20.147,16.009C20.679,16.236 37.59,23.652 38.452,51.777C37.978,42.075 29.951,38.518 20.134,38.518C10.316,38.518 2.289,42.075 1.815,51.776Z" style="fill:rgb(97,255,111);stroke:black;stroke-width:2px;"/>
        <circle cx="20.134" cy="12.848" r="3.672" style="fill:rgb(97,255,111);stroke:black;stroke-width:2px;"/>
        <path d="M36.393,54.029C36.221,49.805 34.907,47.028 32.878,45.194C29.921,42.522 25.322,41.868 20.134,41.868C14.945,41.868 10.346,42.521 7.389,45.194C5.36,47.027 4.046,49.804 3.874,54.028C3.851,54.579 4.281,55.045 4.832,55.068C5.384,55.09 5.85,54.661 5.872,54.109C6.016,50.572 7.031,48.213 8.73,46.677C11.367,44.295 15.507,43.868 20.134,43.868C24.76,43.868 28.901,44.295 31.537,46.677C33.236,48.213 34.251,50.573 34.395,54.11C34.418,54.662 34.883,55.091 35.435,55.069C35.986,55.046 36.416,54.58 36.393,54.029Z"/>
    </g>
</svg>
